<?xml version="1.0"?>
<svg xmlns="http://www.w3.org/2000/svg" height="512px" viewBox="0 0 512 512.00053" width="512px" class=""><g><g><path d="m512 256c0 141.386719-114.613281 256-256 256-141.382812 0-256-114.613281-256-256 0-141.382812 114.617188-256 256-256 141.386719 0 256 114.617188 256 256zm0 0" fill="#ffc640" data-original="#E8E2DB" class="" style="fill:#EFEBE7" data-old_color="#efebe7"/><path d="m401.035156 312.414062c49.371094-55.703124 97.558594-245.84375 110.695313-300.707031 1.648437-6.886719-4.550781-13.085937-11.433594-11.4375-54.867187 13.136719-245.007813 61.324219-300.710937 110.695313-65.339844 57.910156-80.039063 171.421875-80.039063 171.421875l55.035156 55.03125 55.03125 55.03125c0 .003906 113.511719-14.695313 171.421875-80.035157zm0 0" fill="#fff" data-original="#FFF" class=""/><path d="m234.941406 146.320312c47.582032-42.171874 193.246094-83.480468 268.910156-102.816406 3.296876-12.914062 5.964844-23.800781 7.878907-31.800781 1.648437-6.882813-4.550781-13.082031-11.4375-11.433594-54.863281 13.136719-245.003907 61.324219-300.707031 110.695313-65.339844 57.910156-80.039063 171.421875-80.039063 171.421875l35.355469 35.355469c.003906 0 14.699218-113.511719 80.039062-171.421876zm0 0" fill="#f2f2f2" data-original="#F2F2F2" class=""/><path d="m23.34375 362.914062c25.523438 55.453126 70.289062 100.21875 125.746094 125.746094l74.636718-74.640625-125.746093-125.746093zm0 0" fill="#465365" data-original="#664150" class="" style="fill:#664150" data-old_color="#664352"/><path d="m49.566406 407.398438 83.773438-83.769532-35.355469-35.355468-74.640625 74.640624c7.25 15.757813 16.058594 30.648438 26.222656 44.484376zm0 0" fill="#3e4959" data-original="#4C2C3D" class="" style="fill:#4C2C3D" data-old_color="#4c2c3d"/><path d="m200.828125 450.140625-138.96875-138.96875c-4.144531-4.144531-4.144531-10.859375 0-15.003906l44.019531-44.019531c4.144532-4.144532 10.859375-4.144532 15.003906 0l138.972657 138.972656c4.140625 4.140625 4.140625 10.859375 0 15l-44.023438 44.023437c-4.144531 4.140625-10.859375 4.140625-15.003906-.003906zm0 0" fill="#21d8de" data-original="#78C5AD" class="" style="fill:#5ED1C7" data-old_color="#5ed1c7"/><path d="m97.214844 331.523438 44.019531-44.019532c4.144531-4.144531 10.859375-4.144531 15.003906 0l-35.355469-35.355468c-4.144531-4.144532-10.859374-4.144532-15.003906 0l-44.019531 44.019531c-4.144531 4.144531-4.144531 10.859375 0 15.003906l35.355469 35.355469c-4.144532-4.144532-4.144532-10.859375 0-15.003906zm0 0" fill="#16c6cc" data-original="#55B59D" class="active-path" style="fill:#2BA494" data-old_color="#2ba494"/><path d="m401.035156 312.414062c49.371094-55.703124 97.558594-245.84375 110.695313-300.710937 1.648437-6.882813-4.550781-13.082031-11.433594-11.433594-36.488281 8.734375-132.789063 32.972657-209.601563 62.753907 59.515626-20.980469 75.433594 60.792968 19.222657 121.246093-56.210938 60.453125-29.320313 125.527344 13.445312 130.113281 40.308594 4.320313 37.722657 31.5 15.3125 44.027344 22.746094-11.445312 45.039063-26.453125 62.359375-45.996094zm0 0" fill="#ff6d3b" data-original="#F5564E" class="" style="fill:#FD5F58" data-old_color="#fd5f58"/><path d="m343.457031 91.835938c56.007813-20.417969 118.78125-37.695313 160.394531-48.332032 3.300782-12.914062 5.964844-23.800781 7.878907-31.800781 1.648437-6.882813-4.550781-13.082031-11.433594-11.433594-36.488281 8.734375-132.789063 32.972657-209.601563 62.753907 29.253907-10.3125 47.964844 4.210937 52.761719 28.8125zm0 0" fill="#f15424" data-original="#ED4A42" class="" style="fill:#EF5851" data-old_color="#F05851"/></g></g> </svg>
