<?xml version="1.0"?>
<svg xmlns="http://www.w3.org/2000/svg" xmlns:xlink="http://www.w3.org/1999/xlink" version="1.1" id="Capa_1" x="0px" y="0px" viewBox="0 0 512 512" style="enable-background:new 0 0 512 512;" xml:space="preserve" width="512px" height="512px" class=""><g><g><g><circle style="fill:#EFEBE7" cx="256" cy="256" r="256" data-original="#EFEBE7" class="" data-old_color="#efebe7"/><path style="fill:#5ED1C7" d="M512,256c0-5.428-0.189-10.811-0.522-16.156c-21.852-30.687-58.318-50.329-98.77-48.864  c-58.378,2.115-109.669,43.296-114.985,100.377c-0.884,9.493,2.011,16.196,2.781,19.761c1.528,5.632,0.224,11.649-3.496,16.145  c-11.698,14.134-24.817,30.877-24.817,34.883c0,6.192,15.188,11.903,19.547,13.414c0.695,0.241,1.157,0.893,1.157,1.629v10.28  c0,0.82,0.368,1.597,1.002,2.117l7.161,5.872c0.644,0.528,0.925,1.381,0.722,2.188l-0.599,2.376  c-0.653,2.591,0.128,5.333,2.049,7.19l5.143,4.973c10.228,9.888-0.3,19.96,10.664,36.041c3.698,5.424,9.742,8.82,16.303,9.052  c5.508,0.194,11.058-0.664,16.332-2.501l13.899-4.844c2.264-0.789,4.769,0.132,5.982,2.2l0,0  c4.885,8.323,8.416,17.342,10.499,26.718C459.639,434.87,512,351.555,512,256z" data-original="#5ED1C7" class="" data-old_color="#5ed1c7"/><path style="fill:#2BA494" d="M435.483,192.405c-7.395-1.203-15.01-1.706-22.775-1.425  c-58.495,2.119-109.875,43.462-115.016,100.721c-1.454,16.191,8.874,24.014-0.673,35.548  c-11.701,14.137-24.828,30.889-24.828,34.897c0,6.192,15.188,11.903,19.547,13.414c0.695,0.241,1.157,0.893,1.157,1.629v10.28  c0,0.82,0.368,1.597,1.002,2.117l7.161,5.872c0.644,0.528,0.925,1.381,0.722,2.188l-0.599,2.376  c-0.653,2.591,0.128,5.333,2.049,7.19l5.143,4.973c10.207,9.87-0.28,20.062,10.704,36.098c3.931,5.738,10.589,8.981,17.544,9.021  c5.085,0.029,10.186-0.832,15.052-2.528l8.316-2.898c-1.182-1.081-2.247-2.304-3.167-3.652c-7.358-10.792-5.311-20.923-5.657-24.235  c0-8.851-6.518-12.93-7.529-14.244l0,0c-0.037-0.03-0.075-0.056-0.109-0.09c-24.676-24.676-23.815-58.65-7.452-84.148  c7.46-11.625-2.062-17.819-0.579-33.999C340.277,239.306,383.51,200.376,435.483,192.405z" data-original="#2BA494" class="" data-old_color="#5ED1C7"/><path style="fill:#5ED1C7" d="M211.496,311.118c0.793-3.672,3.662-10.296,2.781-19.761c-5.316-57.08-56.607-98.262-114.985-100.377  c-40.452-1.465-76.917,18.177-98.77,48.864C0.189,245.188,0,250.572,0,256c0,95.555,52.361,178.871,129.949,222.852  c2.083-9.376,5.613-18.395,10.499-26.718l0,0c1.213-2.067,3.719-2.989,5.982-2.2l13.899,4.844  c5.275,1.838,10.824,2.696,16.332,2.501c6.56-0.232,12.605-3.628,16.303-9.052c10.993-16.123,0.502-26.216,10.664-36.041  l5.143-4.973c1.921-1.857,2.702-4.599,2.049-7.19l-0.599-2.376c-0.204-0.808,0.078-1.661,0.722-2.188l7.161-5.872  c0.634-0.52,1.002-1.296,1.002-2.117v-10.28c0-0.736,0.461-1.388,1.157-1.629c4.359-1.511,19.547-7.222,19.547-13.414  c0-4.006-13.119-20.75-24.817-34.883C211.272,322.767,209.968,316.75,211.496,311.118z" data-original="#5ED1C7" class="" data-old_color="#5ed1c7"/><path style="fill:#2BA494" d="M131.322,196.197c-10.25-3.026-21.014-4.818-32.03-5.217c-40.452-1.465-76.917,18.177-98.77,48.864  C0.189,245.188,0,250.572,0,256c0,51.648,15.304,99.715,41.613,139.933C22.122,316.5,59.135,234.333,131.322,196.197z" data-original="#2BA494" class="" data-old_color="#5ED1C7"/><path style="fill:#FD5F58" d="M227.098,15.153C172.025-16.505,99.814,3.134,68.344,58.314  C40.44,107.241,52.006,167.998,93.125,203.582c2.172,1.88,3.314,4.686,3.142,7.554l-1.832,30.529  c-0.103,1.708,1.789,2.801,3.217,1.858l27.132-17.914c1.432-0.945,3.228-1.171,4.84-0.585  c51.963,18.916,111.568-1.576,140.175-51.123C301.904,118.292,282.791,47.167,227.098,15.153z" data-original="#EB655F" class="" data-old_color="#EB655F"/><path style="fill:#F4524C" d="M118.401,150.42C89.569,100.482,102.05,38.036,145.229,2.633  c-31.395,6.714-60.003,26.08-76.885,55.681C40.44,107.241,52.006,167.999,93.125,203.582c2.172,1.88,3.314,4.686,3.142,7.554  l-1.832,30.528c-0.103,1.709,1.789,2.801,3.217,1.858l27.132-17.914c1.432-0.945,3.228-1.172,4.84-0.584  c38.616,14.057,81.448,6.346,112.646-18.875C194.628,215.91,144.053,194.849,118.401,150.42z" data-original="#D85C53" class="active-path" data-old_color="#D85C53"/><path style="fill:#664150" d="M284.902,15.153c55.073-31.658,127.284-12.018,158.754,43.161  c27.904,48.927,16.339,109.684-24.781,145.268c-2.172,1.88-3.314,4.686-3.142,7.554l1.832,30.529  c0.103,1.708-1.789,2.801-3.217,1.858l-27.132-17.914c-1.432-0.945-3.228-1.171-4.84-0.585  c-51.963,18.916-111.568-1.576-140.175-51.123C210.096,118.292,229.209,47.167,284.902,15.153z" data-original="#664150" class="" data-old_color="#BBEF89"/><path style="fill:#4C2C3D" d="M288.071,136.642c-23.172-40.135-20.542-88.08,2.733-124.646c-1.986,0.991-3.955,2.038-5.901,3.157  c-55.694,32.015-74.806,103.139-42.701,158.748c28.606,49.548,88.211,70.04,140.175,51.124c1.612-0.587,3.408-0.361,4.84,0.584  l27.132,17.914c1.428,0.943,3.32-0.149,3.217-1.858l-1.832-30.528c-0.172-2.868,0.97-5.674,3.142-7.554  c4.93-4.266,9.43-8.897,13.493-13.824C378.784,208.897,317.533,187.671,288.071,136.642z" data-original="#4C2C3D" class="" data-old_color="#4c2c3d"/><g>
	<path style="fill:#FFFFFF;" d="M169.227,141.123c-4.525,0-8.193-3.668-8.193-8.193v-0.192c0-10.215,5.632-19.709,14.698-24.778   c4.343-2.429,6.968-7.027,6.85-12c-0.165-7.018-6.01-12.863-13.029-13.029c-7.363-0.225-13.685,5.742-13.685,13.355   c0,4.525-3.668,8.193-8.193,8.193s-8.193-3.668-8.193-8.193c0-16.608,13.571-30.083,30.458-29.737   c15.902,0.375,28.65,13.125,29.024,29.024c0.26,11.062-5.577,21.288-15.235,26.688c-3.891,2.176-6.309,6.19-6.309,10.476v0.192   C177.42,137.455,173.752,141.123,169.227,141.123z" data-original="#FFFFFF" class=""/>
	<path style="fill:#FFFFFF;" d="M169.228,166.981c-4.493,0-8.193-3.647-8.193-8.193c0-5.239,4.828-9.041,9.788-8.04   c3.902,0.81,6.598,4.145,6.598,8.04C177.421,163.366,173.669,166.981,169.228,166.981z" data-original="#FFFFFF" class=""/>
</g><g>
	<path style="fill:#FDFDFC" d="M288.905,130.129h-4.833c-4.525,0-8.193-3.668-8.193-8.193s3.668-8.193,8.193-8.193h4.833   c4.525,0,8.193,3.668,8.193,8.193S293.43,130.129,288.905,130.129z" data-original="#FDFDFC" class="" data-old_color="#FCFDFB"/>
	<path style="fill:#FDFDFC" d="M401.474,130.129h-34.411c-4.525,0-8.193-3.668-8.193-8.193s3.668-8.193,8.193-8.193h34.411   c4.525,0,8.193,3.668,8.193,8.193S405.999,130.129,401.474,130.129z" data-original="#FDFDFC" class="" data-old_color="#FCFDFB"/>
	<path style="fill:#FDFDFC" d="M340,130.129h-23.972c-4.525,0-8.193-3.668-8.193-8.193s3.668-8.193,8.193-8.193H340   c4.525,0,8.193,3.668,8.193,8.193S344.524,130.129,340,130.129z" data-original="#FDFDFC" class="" data-old_color="#FCFDFB"/>
	<path style="fill:#FDFDFC" d="M401.474,166.979h-73.206c-4.525,0-8.193-3.668-8.193-8.193s3.668-8.193,8.193-8.193h73.206   c4.525,0,8.193,3.668,8.193,8.193S405.999,166.979,401.474,166.979z" data-original="#FDFDFC" class="" data-old_color="#FCFDFB"/>
	<path style="fill:#FDFDFC" d="M299.79,166.979h-15.718c-4.525,0-8.193-3.668-8.193-8.193s3.668-8.193,8.193-8.193h15.718   c4.525,0,8.193,3.668,8.193,8.193S304.315,166.979,299.79,166.979z" data-original="#FDFDFC" class="" data-old_color="#FCFDFB"/>
	<path style="fill:#FDFDFC" d="M401.474,93.277h-73.206c-4.525,0-8.193-3.668-8.193-8.193s3.668-8.193,8.193-8.193h73.206   c4.525,0,8.193,3.668,8.193,8.193C409.667,89.61,405.999,93.277,401.474,93.277z" data-original="#FDFDFC" class="" data-old_color="#FCFDFB"/>
	<path style="fill:#FDFDFC" d="M299.79,93.277h-15.718c-4.525,0-8.193-3.668-8.193-8.193s3.668-8.193,8.193-8.193h15.718   c4.525,0,8.193,3.668,8.193,8.193C307.983,89.61,304.315,93.277,299.79,93.277z" data-original="#FDFDFC" class="" data-old_color="#FCFDFB"/>
</g></g></g></g> </svg>
