<?xml version="1.0"?>
<svg xmlns="http://www.w3.org/2000/svg" height="512px" viewBox="-6 0 512 512" width="512px" class=""><g><path d="m500.757812 261.621094c0 138.28125-112.097656 250.378906-250.378906 250.378906s-250.378906-112.097656-250.378906-250.378906 112.097656-250.378906 250.378906-250.378906 250.378906 112.097656 250.378906 250.378906zm0 0" fill="#7956ba" data-original="#7956BA" class="" style="fill:#EFEBE7" data-old_color="#efebe7"/><path d="m413.972656 51.640625c-.023437-.089844-.039062-.183594-.0625-.277344-4.367187-16.679687-18.101562-30.113281-36.203125-33.191406l-53.832031-9.152344c-7.601562-5.664062-17.023438-9.019531-27.234375-9.019531h-92.523437c-10.210938 0-19.628907 3.355469-27.234376 9.019531l-53.832031 9.152344c-18.101562 3.078125-31.839843 16.511719-36.199219 33.191406-.023437.09375-.042968.1875-.066406.277344-1.515625 5.949219-1.859375 12.296875-.761718 18.738281l.347656 2.054688 71.761718 422.019531c.101563.039063.203126.078125.300782.117187v.007813c10.609375 4.191406 21.578125 7.675781 32.839844 10.402344 1.863281.449219 3.734374.878906 5.613281 1.289062.03125.003907.066406.015625.101562.023438 1.816407.394531 3.636719.765625 5.46875 1.121093.097657.019532.199219.039063.296875.058594 1.773438.339844 3.554688.660156 5.34375.964844.15625.027344.308594.058594.464844.082031 1.707031.289063 3.417969.550781 5.136719.804688.242187.035156.480469.074219.71875.109375 1.644531.238281 3.292969.449218 4.945312.652344.320313.039062.636719.085937.957031.125 1.558594.1875 3.128907.351562 4.695313.507812.417969.042969.828125.09375 1.242187.132812 1.511719.144532 3.03125.261719 4.550782.382813.476562.035156.949218.082031 1.425781.117187 1.476563.105469 2.960937.183594 4.441406.265626.523438.027343 1.046875.066406 1.574219.09375 1.414062.066406 2.835938.109374 4.257812.152343.597657.019531 1.191407.050781 1.792969.0625 2.011719.050781 4.035157.074219 6.058594.074219h.019531c2.03125 0 4.058594-.023438 6.078125-.074219.589844-.011719 1.175781-.042969 1.761719-.0625 1.433594-.042969 2.867188-.085937 4.292969-.152343.511719-.023438 1.023437-.066407 1.539062-.09375 1.492188-.078126 2.988281-.160157 4.472657-.265626.464843-.035156.929687-.082031 1.394531-.117187 1.53125-.117187 3.058593-.238281 4.582031-.382813.40625-.039062.808594-.089843 1.210938-.128906 1.578124-.160156 3.160156-.324218 4.730468-.511718.308594-.035157.617188-.082032.925782-.121094 1.660156-.207032 3.320312-.417969 4.972656-.65625.234375-.03125.46875-.074219.703125-.109375 1.722656-.25 3.441406-.515625 5.152343-.804688.152344-.023437.300782-.054687.449219-.078125 1.792969-.304687 3.582031-.625 5.363281-.96875.085938-.015625.175782-.035156.265626-.054687 1.839843-.355469 3.671874-.730469 5.496093-1.125.03125-.007813.058594-.015625.085938-.019531 13.246093-2.882813 26.097656-6.808594 38.46875-11.695313v-.007813c.101562-.039062.203125-.078124.304687-.117187l71.761719-422.019531.347656-2.054688c1.09375-6.441406.75-12.789062-.765625-18.738281zm0 0" fill="#c1c1c1" data-original="#C1C1C1" class="" style="fill:#5ED1C7" data-old_color="#5ed1c7"/><path d="m338.394531 27.167969c-.039062-.089844-.074219-.179688-.113281-.265625-7.164062-15.859375-23.105469-26.902344-41.640625-26.902344h-92.523437c-18.53125 0-34.476563 11.042969-41.640626 26.902344-.039062.085937-.074218.175781-.113281.265625-2.515625 5.660156-3.929687 11.917969-3.929687 18.515625v448.894531c28.464844 11.242187 59.484375 17.421875 91.945312 17.421875 32.460938 0 63.480469-6.179688 91.945313-17.421875v-448.894531c0-6.597656-1.417969-12.855469-3.929688-18.515625zm0 0" fill="#fff" data-original="#FFF" class=""/><path d="m226.75 27.167969c.039062-.089844.070312-.179688.109375-.265625 7.164063-15.859375 23.109375-26.902344 41.640625-26.902344h-64.382812c-18.53125 0-34.476563 11.042969-41.640626 26.902344-.039062.085937-.074218.175781-.109374.265625-2.515626 5.660156-3.933594 11.917969-3.933594 18.515625v448.894531c20.296875 8.015625 41.894531 13.441406 64.382812 15.90625v-464.800781c0-6.597656 1.417969-12.855469 3.933594-18.515625zm0 0" fill="#ddd" data-original="#DDD" class=""/><path d="m315.988281 143.5h-131.21875c-4.417969 0-8-3.582031-8-8v-81.625c0-4.417969 3.582031-8 8-8h131.21875c4.417969 0 8 3.582031 8 8v81.625c.003907 4.417969-3.578125 8-8 8zm0 0" fill="#fdd33a" data-original="#FDD33A" class="" style="fill:#EFEBE7" data-old_color="#efebe7"/><path d="m315.988281 262.71875h-131.21875c-4.417969 0-8-3.582031-8-8v-81.625c0-4.417969 3.582031-8 8-8h131.21875c4.417969 0 8 3.582031 8 8v81.625c.003907 4.417969-3.578125 8-8 8zm0 0" fill="#322277" data-original="#322277" class="" style="fill:#4C2C3D" data-old_color="#4c2c3d"/><path d="m315.988281 381h-131.21875c-4.417969 0-8-3.582031-8-8.003906v-81.625c0-4.417969 3.582031-8 8-8h131.21875c4.417969 0 8 3.582031 8 8v81.625c.003907 4.417968-3.578125 8.003906-8 8.003906zm0 0" fill="#f84e82" data-original="#F84E82" class="" style="fill:#FD5F58" data-old_color="#fd5f58"/><path d="m316.082031 499.277344h-131.21875c-4.421875 0-8.003906-3.582032-8.003906-8v-81.625c0-4.421875 3.582031-8.003906 8.003906-8.003906h131.21875c4.417969 0 8 3.582031 8 8.003906v81.625c0 4.417968-3.582031 8-8 8zm0 0" fill="#99d3ff" data-original="#99D3FF" class="" style="fill:#5ED1C7" data-old_color="#5ed1c7"/><path d="m176.675781 53.875v81.625c0 4.417969 3.582031 8 8 8h37.675781v-97.625h-37.675781c-4.417969 0-8 3.582031-8 8zm0 0" fill="#f9bd3a" data-original="#F9BD3A" class="" style="fill:#E8E4DF" data-old_color="#E6E3DE"/><path d="m176.675781 173.09375v81.625c0 4.417969 3.582031 8 8 8h37.675781v-97.628906h-37.675781c-4.417969.003906-8 3.585937-8 8.003906zm0 0" fill="#08053d" data-original="#08053D" class="" style="fill:#412634" data-old_color="#422635"/><path d="m176.675781 291.371094v81.625c0 4.417968 3.582031 8 8 8h37.675781v-97.625h-37.675781c-4.417969 0-8 3.582031-8 8zm0 0" fill="#dd3a71" data-original="#DD3A71" class="" style="fill:#F45953" data-old_color="#F35852"/><path d="m184.863281 401.648438c-4.421875 0-8.003906 3.582031-8.003906 8.003906v81.625c0 4.417968 3.582031 8 8.003906 8h37.488281v-97.628906zm0 0" fill="#64badd" data-original="#64BADD" class="active-path" style="fill:#59C4BB" data-old_color="#59C5BC"/></g> </svg>
